{"title":"The.Craft.1996.720p.BRRip.XviD.AC3-PsychoLogic","uid":6590554,"size":2642243491,"categoryP":"video","categoryS":"hd___movies","magnet":"?xt=urn:btih:de48e94f8389e4a9a0e6c605ffc328126ddb0c04&amp;dn=The.Craft.1996.720p.BRRip.XviD.AC3-PsychoLogic&amp;tr=udp%3A%2F%2Ftracker.openbittorrent.com%3A80&amp;tr=udp%3A%2F%2Fopen.demonii.com%3A1337&amp;tr=udp%3A%2F%2Ftracker.coppersurfer.tk%3A6969&amp;tr=udp%3A%2F%2Fexodus.desync.com%3A6969","seeders":0,"leechers":1,"uploader":"PsychoLogic","files":8,"time":1312764560,"description":"Release Information:\n\nThe.Craft.1996.720p.BRRip.XviD.AC3-PsychoLogic\n\nSource                           : The.Craft.1996.1080p.BluRay.x264-Japhson\nSubtitles                        : Danish, English, Estonian, Polish\nLanguage                         : English\nEncoded By                       : PsychoLogic\nSample Included                  : Yes\n\nMovie Information                : http://www.imdb.com/title/tt0115963/\nGenre                            : Drama | Fantasy | Horror \nDirector                         : Andrew Fleming\nCast                             : Robin Tunney, Fairuza Balk and Neve Campbell\nPlot                             : A newcomer to a Catholic prep high school falls in with a trio of outcast teenage girls who practice witchcraft and they all soon conjure up various spells and curses against those who even slightly anger them. \n\nGeneral\nFormat                           : AVI\nFormat/Info                      : Audio Video Interleave\nFormat profile                   : OpenDML\nFile size                        : 2.44 GiB\nDuration                         : 1h 40mn\nOverall bit rate                 : 3 459 Kbps\nWriting application              : VirtualDubMod 1.5.10.2 (build 2542/release)\nWriting library                  : VirtualDubMod build 2542/release\n\nVideo\nID                               : 0\nFormat                           : MPEG-4 Visual\nFormat profile                   : Advanced Simple@L5\nFormat settings, BVOP            : 2\nFormat settings, QPel            : No\nFormat settings, GMC             : No warppoints\nFormat settings, Matrix          : Default (H.263)\nCodec ID                         : XVID\nCodec ID/Hint                    : XviD\nDuration                         : 1h 40mn\nBit rate                         : 3 000 Kbps\nWidth                            : 1 280 pixels\nHeight                           : 688 pixels\nDisplay aspect ratio             : 1.860\nFrame rate                       : 23.976 fps\nColor space                      : YUV\nChroma subsampling               : 4:2:0\nBit depth                        : 8 bits\nScan type                        : Progressive\nCompression mode                 : Lossy\nBits/(Pixel*Frame)               : 0.142\nStream size                      : 2.12 GiB (87%)\nWriting library                  : XviD 1.2.1 (UTC 2008-12-04)\n\nAudio\nID                               : 1\nFormat                           : AC-3\nFormat/Info                      : Audio Coding 3\nMode extension                   : CM (complete main)\nCodec ID                         : 2000\nDuration                         : 1h 40mn\nBit rate mode                    : Constant\nBit rate                         : 448 Kbps\nChannel(s)                       : 6 channels\nChannel positions                : Front: L C R, Side: L R, LFE\nSampling rate                    : 48.0 KHz\nBit depth                        : 16 bits\nCompression mode                 : Lossy\nStream size                      : 324 MiB (13%)\nAlignment                        : Split accross interleaves\nInterleave, duration             : 42 ms (1.00 video frame)\nInterleave, preload duration     : 500 ms\n\n","torrent":{"xt":"urn:btih:de48e94f8389e4a9a0e6c605ffc328126ddb0c04","amp;dn":"The.Craft.1996.720p.BRRip.XviD.AC3-PsychoLogic","amp;tr":["udp%3A%2F%2Ftracker.openbittorrent.com%3A80","udp%3A%2F%2Fopen.demonii.com%3A1337","udp%3A%2F%2Ftracker.coppersurfer.tk%3A6969","udp%3A%2F%2Fexodus.desync.com%3A6969"],"infoHash":"de48e94f8389e4a9a0e6c605ffc328126ddb0c04","infoHashBuffer":{"type":"Buffer","data":[222,72,233,79,131,137,228,169,160,230,198,5,255,195,40,18,109,219,12,4]},"announce":[],"urlList":[]}}